<?xml version="1.0"?>
<svg width="586px" height="65px" viewBox="0 0 586 65" version="1.1" xmlns="http://www.w3.org/2000/svg" xmlns:xlink="http://www.w3.org/1999/xlink">
    <title>Globallinker_Logo</title>
    <defs>
        <polygon id="path-1" points="0 0.5943 59.6927 0.5943 59.6927 63 0 63"></polygon>
        <polygon id="path-3" points="0.9282 0.594 34.3922 0.594 34.3922 62.9999 0.9282 62.9999"></polygon>
        <polygon id="path-5" points="0.1772 0.594 33.6412 0.594 33.6412 62.9999 0.1772 62.9999"></polygon>
        <polygon id="path-7" points="0.6009 0.594 47.6309 0.594 47.6309 63 0.6009 63"></polygon>
        <polygon id="path-9" points="0.4948 0.594 30.3408 0.594 30.3408 62.9999 0.4948 62.9999"></polygon>
        <polygon id="path-11" points="0 62.4061 585.17 62.4061 585.17 0.0001 0 0.0001"></polygon>
        <polygon id="path-13" points="0 62.4061 585.17 62.4061 585.17 0.0001 0 0.0001"></polygon>
        <polygon id="path-15" points="0 62.4061 585.17 62.4061 585.17 0.0001 0 0.0001"></polygon>
        <polygon id="path-17" points="0 62.4061 585.17 62.4061 585.17 0.0001 0 0.0001"></polygon>
        <polygon id="path-19" points="0 62.4061 585.17 62.4061 585.17 0.0001 0 0.0001"></polygon>
        <polygon id="path-21" points="0 62.4061 585.17 62.4061 585.17 0.0001 0 0.0001"></polygon>
        <polygon id="path-23" points="0 62.4061 585.17 62.4061 585.17 0.0001 0 0.0001"></polygon>
    </defs>
    <g id="Page-1" stroke="none" stroke-width="1" fill="none" fill-rule="evenodd">
        <g id="Globallinker_Logo">
            <g id="Fill-1-Clipped" transform="translate(0.000000, 0.406100)">
                <mask id="mask-2" fill="white">
                    <use xlink:href="#path-1"></use>
                </mask>
                <g id="path-1"></g>
                <path d="M59.6927,20.4913 L46.1257,20.4913 C44.8957,17.7153 42.8727,16.0003 40.2087,14.3503 C37.5417,12.7023 34.3917,11.8783 30.7607,11.8783 C27.1867,11.8783 24.0227,12.6873 21.2687,14.3083 C18.5137,15.9293 16.3757,18.2443 14.8527,21.2513 C13.3287,24.2613 12.5677,27.7903 12.5677,31.8413 C12.5677,38.2633 14.3097,43.2683 17.7977,46.8563 C21.2817,50.4453 26.0437,52.2363 32.0787,52.2363 C36.5307,52.2363 40.3537,50.9353 43.5477,48.3323 C46.7407,45.7263 48.8057,42.3053 49.7437,37.6763 L28.9417,37.6763 L28.9417,28.6323 L59.6927,28.6323 L59.6927,40.5283 C58.8137,44.5793 57.5227,48.3033 54.9737,51.7163 C52.4247,55.1323 49.0847,57.8663 44.9537,59.9193 C40.8237,61.9733 36.0907,63.0003 30.7607,63.0003 C24.6657,63.0003 19.2907,61.6853 14.6337,59.0513 C9.9747,56.4193 6.3717,52.7453 3.8227,48.0283 C1.2747,43.3113 -0.0003,37.9163 -0.0003,31.8413 C-0.0003,25.7643 1.2747,20.3693 3.8227,15.6523 C6.3717,10.9373 9.9607,7.2483 14.5897,4.5873 C19.2167,1.9263 24.5777,0.5943 30.6717,0.5943 C38.2307,0.5943 44.4997,2.4313 49.4797,6.1053 C54.4597,9.7803 58.2847,14.2423 59.6927,20.4913" id="Fill-1" fill="#393A7E" fill-rule="nonzero" mask="url(#mask-2)"></path>
            </g>
            <g id="Fill-4-Clipped" transform="translate(66.000000, 0.406100)">
                <mask id="mask-4" fill="white">
                    <use xlink:href="#path-3"></use>
                </mask>
                <g id="path-3"></g>
                <polygon id="Fill-4" fill="#393A7E" fill-rule="nonzero" mask="url(#mask-4)" points="13.5902 53.0509 34.3922 53.0509 34.3922 62.9999 1.1722 62.9999 0.9282 0.5939 13.3202 0.5939"></polygon>
            </g>
            <g id="Fill-7-Clipped" transform="translate(301.000000, 0.406100)">
                <mask id="mask-6" fill="white">
                    <use xlink:href="#path-5"></use>
                </mask>
                <g id="path-5"></g>
                <polygon id="Fill-7" fill="#393A7E" fill-rule="nonzero" mask="url(#mask-6)" points="12.8392 53.0509 33.6412 53.0509 33.6412 62.9999 0.4202 62.9999 0.1772 0.5939 12.5682 0.5939"></polygon>
            </g>
            <g id="Fill-10-Clipped" transform="translate(183.000000, 0.406100)">
                <mask id="mask-8" fill="white">
                    <use xlink:href="#path-7"></use>
                </mask>
                <g id="path-7"></g>
                <path d="M44.2469,36.172 C46.5019,38.973 47.6309,42.257 47.6309,46.027 C47.6309,51.274 45.8869,55.413 42.4009,58.447 C38.9139,61.484 33.8599,63 27.2369,63 L0.6009,63 L0.6009,0.594 L26.7089,0.594 C32.9799,0.594 37.7989,1.98 41.1709,4.748 C44.5399,7.519 46.2259,11.408 46.2259,16.416 C46.2259,20.306 45.2139,23.487 43.1919,25.962 C41.1709,28.438 38.5179,30.06 35.2359,30.824 C38.9869,31.591 41.9909,33.373 44.2469,36.172 L44.2469,36.172 Z M12.9959,26.758 L24.1609,26.758 C27.2669,26.758 29.6239,26.067 31.2369,24.681 C32.8469,23.297 33.6539,21.309 33.6539,18.714 C33.6539,16.122 32.8639,14.118 31.2799,12.704 C29.6979,11.29 27.2669,10.583 23.9839,10.583 L12.9959,10.583 L12.9959,26.758 Z M32.3359,50.669 C34.0939,49.225 34.9729,47.119 34.9729,44.349 C34.9729,41.579 34.0799,39.443 32.2919,37.94 C30.5029,36.438 27.9689,35.686 24.6879,35.686 L12.9959,35.686 L12.9959,52.835 L24.7759,52.835 C28.0569,52.835 30.5779,52.113 32.3359,50.669 L32.3359,50.669 Z" id="Fill-10" fill="#393A7E" fill-rule="nonzero" mask="url(#mask-8)"></path>
            </g>
            <path d="M276.7572,50.7441 L251.4332,50.7441 L247.3292,63.4061 L234.2492,63.4061 L257.0722,1.0001 L271.2062,1.0001 L293.9422,63.4061 L280.8612,63.4061 L276.7572,50.7441 Z M273.1392,40.7951 L264.0962,14.5011 L255.0512,40.7951 L273.1392,40.7951 Z" id="Fill-13" fill="#393A7E" fill-rule="nonzero"></path>
            <g id="Fill-15-Clipped" transform="translate(345.000000, 0.406100)">
                <mask id="mask-10" fill="white">
                    <use xlink:href="#path-9"></use>
                </mask>
                <g id="path-9"></g>
                <polygon id="Fill-15" fill="#393A7E" fill-rule="nonzero" mask="url(#mask-10)" points="8.4598 56.7149 30.3408 56.7149 30.3408 62.9999 0.4948 62.9999 0.4948 0.5939 8.4598 0.5939"></polygon>
            </g>
            <g id="Fill-18-Clipped" transform="translate(0.000000, 1.000000)">
                <mask id="mask-12" fill="white">
                    <use xlink:href="#path-11"></use>
                </mask>
                <g id="path-11"></g>
                <polygon id="Fill-18" fill="#393A7E" fill-rule="nonzero" mask="url(#mask-12)" points="382.577 62.4061 390.717 62.4061 390.717 0.0001 382.577 0.0001"></polygon>
            </g>
            <g id="Fill-20-Clipped" transform="translate(0.000000, 1.000000)">
                <mask id="mask-14" fill="white">
                    <use xlink:href="#path-13"></use>
                </mask>
                <g id="path-11"></g>
                <polygon id="Fill-20" fill="#393A7E" fill-rule="nonzero" mask="url(#mask-14)" points="445.8866 62.4062 437.9266 62.4062 406.0916 12.6622 405.9116 62.4062 397.9516 62.4062 397.9516 0.0002 405.9116 0.0002 437.7466 49.7442 437.9266 0.0002 445.8866 0.0002"></polygon>
            </g>
            <g id="Fill-21-Clipped" transform="translate(0.000000, 1.000000)">
                <mask id="mask-16" fill="white">
                    <use xlink:href="#path-15"></use>
                </mask>
                <g id="path-11"></g>
                <polygon id="Fill-21" fill="#393A7E" fill-rule="nonzero" mask="url(#mask-16)" points="468.4081 30.8925 495.6311 62.4065 486.7521 62.4065 461.2621 32.5595 461.2621 62.4065 453.1221 62.4065 453.1221 -0.0005 461.2621 -0.0005 461.2621 28.9425 487.4911 -0.0005 495.6311 -0.0005"></polygon>
            </g>
            <g id="Fill-22-Clipped" transform="translate(0.000000, 1.000000)">
                <mask id="mask-18" fill="white">
                    <use xlink:href="#path-17"></use>
                </mask>
                <g id="path-11"></g>
                <polygon id="Fill-22" fill="#393A7E" fill-rule="nonzero" mask="url(#mask-18)" points="510.1014 6.331 510.1014 28.038 533.6174 28.038 533.6174 33.464 510.1014 33.464 510.1014 56.075 536.3304 56.075 536.3304 62.406 502.8664 62.406 502.8664 0 536.3304 0 536.3304 6.331"></polygon>
            </g>
            <g id="Fill-23-Clipped" transform="translate(0.000000, 1.000000)">
                <mask id="mask-20" fill="white">
                    <use xlink:href="#path-19"></use>
                </mask>
                <g id="path-11"></g>
                <path d="M576.1258,62.4062 L559.8458,37.0822 L551.7058,37.0822 L551.5028,62.4062 L543.5658,62.4062 L543.5658,0.0002 L563.4638,0.0002 C570.4408,0.0002 576.0128,1.6972 579.4998,5.0902 C582.9898,8.4832 584.2658,13.3872 584.2658,18.9932 C584.2658,24.0692 583.3388,27.7512 580.5468,30.8482 C577.7558,33.9472 574.1808,36.3152 568.8908,37.0822 L585.1698,62.4062 L576.1258,62.4062 Z M551.7058,30.7512 L563.4638,30.7512 C572.4768,30.7512 576.6228,27.0582 576.6228,19.0312 C576.6228,11.0072 571.5708,7.2352 562.5598,7.2352 L551.7058,7.2352 L551.7058,30.7512 Z" id="Fill-23" fill="#393A7E" fill-rule="nonzero" mask="url(#mask-20)"></path>
            </g>
            <g id="Fill-24-Clipped" transform="translate(0.000000, 1.000000)">
                <mask id="mask-22" fill="white">
                    <use xlink:href="#path-21"></use>
                </mask>
                <g id="path-11"></g>
                <path d="M172.2542,15.0634 C169.5142,10.3154 165.7712,6.6194 161.0282,3.9714 C156.2832,1.3254 150.9962,0.0004 145.1622,0.0004 C143.4552,0.0004 141.8012,0.1264 140.1872,0.3544 C136.2852,0.9024 132.6502,2.0994 129.2962,3.9714 C124.5512,6.6194 120.8092,10.3154 118.0692,15.0634 C115.3542,19.7674 113.9872,25.0824 113.9632,31.0014 C113.9892,34.8994 115.6312,38.5844 117.2612,41.5094 C118.9042,44.4574 121.1842,46.7184 124.1002,48.2904 C125.3352,48.9564 126.6572,49.4714 128.0582,49.8554 C129.9662,50.3784 132.0242,50.6484 134.2422,50.6484 C135.9082,50.6484 137.4822,50.4924 138.9742,50.1964 C137.7582,49.8134 136.6082,49.3104 135.5272,48.6814 C132.7562,47.0724 130.5902,44.7544 129.0302,41.7334 C127.4692,38.7124 126.6872,35.1894 126.6872,31.1614 C126.6872,27.1324 127.4692,23.6084 129.0302,20.5854 C130.5902,17.5664 132.7562,15.2504 135.5272,13.6384 C136.9612,12.8044 138.5162,12.1914 140.1872,11.7894 C140.2112,11.7834 140.2362,11.7784 140.2602,11.7724 C140.2362,11.7674 140.2122,11.7624 140.1872,11.7574 C141.8572,11.4084 143.6242,10.8534 145.5002,10.8534 C149.6422,10.8534 153.2842,11.7064 156.4242,13.4084 C159.5642,15.1114 162.0202,17.5594 163.7922,20.7514 C165.3472,23.5604 166.2072,26.7884 166.3952,30.4184 C166.4002,30.5304 166.4122,30.6384 166.4162,30.7514 C166.4162,30.8204 166.4102,30.8874 166.4102,30.9574 C166.3792,36.8684 165.0142,42.5804 162.3052,47.3004 C159.5662,52.0774 155.8222,55.7894 151.0792,58.4354 C147.7232,60.3084 144.0882,61.5044 140.1872,62.0524 C141.8012,62.2794 143.4552,62.4064 145.1622,62.4064 C150.9962,62.4064 156.2832,61.0834 161.0282,58.4354 C165.7712,55.7894 169.5142,52.0774 172.2542,47.3004 C174.9952,42.5254 176.3652,37.1464 176.3652,31.1614 C176.3652,25.1754 174.9952,19.8094 172.2542,15.0634" id="Fill-24" fill="#21AAC9" fill-rule="nonzero" mask="url(#mask-22)"></path>
            </g>
            <g id="Fill-25-Clipped" transform="translate(0.000000, 1.000000)">
                <mask id="mask-24" fill="white">
                    <use xlink:href="#path-23"></use>
                </mask>
                <g id="path-11"></g>
                <path d="M166.3949,30.4189 C166.2069,26.7879 165.3479,23.5609 163.7919,20.7519 C162.0199,17.5599 159.5639,15.1109 156.4249,13.4079 C153.2839,11.7059 149.6419,10.8539 145.4999,10.8539 C143.6239,10.8539 141.8569,11.4079 140.1869,11.7579 C140.2119,11.7629 140.2359,11.7679 140.2609,11.7729 C140.2359,11.7779 140.2109,11.7829 140.1869,11.7889 C141.8579,12.1909 143.4139,12.8049 144.8489,13.6389 C147.6179,15.2499 149.7829,17.5659 151.3449,20.5859 C152.9049,23.6079 153.6869,27.1329 153.6869,31.1609 C153.6869,34.0999 153.2659,36.7669 152.4359,39.1689 C152.0949,40.0339 151.6949,40.8209 151.2219,41.5099 C148.6899,45.1919 147.2979,46.7189 144.3839,48.2899 C142.7309,49.1819 140.9249,49.8109 138.9739,50.1959 C137.4819,50.4919 135.9089,50.6479 134.2419,50.6479 C132.0239,50.6479 129.9659,50.3789 128.0589,49.8559 C126.6569,49.4719 125.3349,48.9559 124.1009,48.2899 C121.1849,46.7189 118.9049,44.4569 117.2619,41.5099 C115.6309,38.5839 113.9889,34.8989 113.9639,31.0019 C113.9879,25.0819 115.3539,19.7679 118.0699,15.0639 C120.8099,10.3149 124.5519,6.6189 129.2959,3.9719 C132.6509,2.0999 136.2859,0.9019 140.1869,0.3549 C138.5739,0.1269 136.9199,-0.0001 135.2139,-0.0001 C129.3789,-0.0001 124.0899,1.3249 119.3469,3.9719 C114.6029,6.6189 110.8609,10.3149 108.1209,15.0639 C105.4439,19.6999 104.0839,24.9329 104.0219,30.7509 L104.0099,30.7509 C104.0099,30.8199 104.0159,30.8879 104.0159,30.9569 C104.0159,31.0249 104.0099,31.0919 104.0099,31.1609 C104.0099,37.1469 105.3809,42.5249 108.1209,47.3009 C110.8609,52.0769 114.6029,55.7889 119.3469,58.4359 C124.0899,61.0829 129.3789,62.4059 135.2139,62.4059 C136.9199,62.4059 138.5739,62.2789 140.1869,62.0529 C144.0889,61.5049 147.7229,60.3089 151.0799,58.4359 C155.8229,55.7889 159.5659,52.0769 162.3059,47.3009 C165.0149,42.5799 166.3789,36.8679 166.4109,30.9569 C166.4109,30.8879 166.4159,30.8199 166.4159,30.7509 C166.4119,30.6389 166.3999,30.5299 166.3949,30.4189" id="Fill-25" fill="#393A7E" fill-rule="nonzero" mask="url(#mask-24)"></path>
            </g>
        </g>
    </g>
</svg>
